<?xml version="1.0" encoding="UTF-8" ?>
<!DOCTYPE svg PUBLIC "-//W3C//DTD SVG 1.1//EN" "http://www.w3.org/Graphics/SVG/1.1/DTD/svg11.dtd">
<svg width="600pt" height="600pt" viewBox="0 0 600 600" version="1.1" xmlns="http://www.w3.org/2000/svg">
<g id="#ffffffff">
<path fill="#ffffff" opacity="1.00" d=" M 63.01 122.00 C 81.60 121.96 100.18 121.95 118.77 122.11 C 163.30 212.27 208.74 301.99 253.46 392.07 C 298.40 302.09 343.54 212.20 388.32 122.14 C 406.87 121.93 425.43 121.96 444.00 122.02 C 390.99 228.01 338.00 334.01 285.00 440.00 C 274.36 460.42 265.07 481.57 253.65 501.57 C 246.90 490.86 241.69 479.29 236.00 468.00 C 178.34 352.67 120.66 237.34 63.01 122.00 Z" />
<path fill="#ffffff" opacity="1.00" d=" M 156.75 122.12 C 175.16 121.91 193.57 121.99 211.98 122.00 C 234.04 165.98 255.94 210.04 278.06 253.98 C 278.91 256.82 281.87 259.88 279.83 262.91 C 271.60 280.65 262.44 297.97 253.61 315.43 C 249.15 307.42 245.05 299.22 240.97 291.01 C 213.00 234.66 184.51 178.57 156.75 122.12 Z" />
<path fill="#ffffff" opacity="1.00" d=" M 250.70 122.13 C 283.89 121.90 317.09 121.96 350.28 122.08 C 333.96 155.31 317.40 188.44 300.61 221.43 C 283.39 188.63 267.21 155.29 250.70 122.13 Z" />
<path fill="#ffffff" opacity="1.00" d=" M 482.32 122.14 C 500.87 121.93 519.43 121.96 538.00 122.02 C 476.33 245.35 414.64 368.66 353.02 492.01 C 351.37 495.27 349.60 498.48 347.65 501.57 C 338.62 487.00 331.98 471.14 323.87 456.06 C 321.87 452.12 318.66 447.27 321.93 443.00 C 375.46 336.09 429.02 229.18 482.32 122.14 Z" />
</g>
</svg>
